# xmcd
#
# Track frame offsets: 
#        150
#        21884
#        47493
#        73386
#        99949
#        120582
#        144513
#        165833
#        190674
#        211690
#        231827
#        253488
#        273668
#        292641
#        319166
#
# Disc length: 4667 seconds
#
# Revision: 0
# Processed by: cddbd v1.5.2PL0 Copyright (c) Steve Scherf et al.
# Submitted via: ExactAudioCopy v0.99pb4
#
DISCID=d112390f
DTITLE=Various Artist - Time Blues Vol 26
DYEAR=2009
DGENRE=Blues
TTITLE0=James Solberg
TTITLE1=Gary Moore
TTITLE2=Vance Kelly
TTITLE3=The Budda Heads
TTITLE4=Zora Young
TTITLE5=Sonny Moorman
TTITLE6=Lil Dave Thompson
TTITLE7=Miguel M Blues Band
TTITLE8=The Cate Brothers
TTITLE9=The Nelsen Adelard Band
TTITLE10=Francine Reed
TTITLE11=Rick Moore And The Mr Lucky Band
TTITLE12=Mojo Band
TTITLE13=Jimmy Smith
TTITLE14=Joe Bonamassa
EXTD=
EXTT0=
EXTT1=
EXTT2=
EXTT3=
EXTT4=
EXTT5=
EXTT6=
EXTT7=
EXTT8=
EXTT9=
EXTT10=
EXTT11=
EXTT12=
EXTT13=
EXTT14=
PLAYORDER=
